<svg xmlns="http://www.w3.org/2000/svg" width="400" height="400" viewBox="0 0 100 100" fill="none">
  <style>
    #diagonal {
      stroke: #ff0000;
    }
    path {
      stroke: #000000;
    }
    
    .arc {
      stroke: #0A0A0A;
    }
    
    .arc-highlight {
      stroke: #ea2525;
      stroke-width: 4;
    }
    
    .swish {
      stroke: #ea2525;
      stroke-width: 1.5;
    }
    
    text {
      fill: #000000;
      stroke: #000000;
      font-family: "futura", monospace;
    }
  </style>
  <g id="outer-ring">
    <!-- left to top -->
    <path id="a1" class="arc" d="M5 50A45 45 0 0 1 50 5"/>
    <!-- left to top highlight -->
    <path id="a1" class="arc-highlight" d="M10 30A45 45 0 0 1 30 10"/>
    
    <!-- top to right -->
    <path class="arc" d="M50 5A45 45 0 0 1 95 50" stroke-dasharray="4"/>
    
    <!-- right to bottom -->
    <path class="arc" d="M95 50A45 45 0 0 1 50 95"/>
    <!-- right to bottom highlight -->
    <path id="a1" class="arc-highlight" d="M90 70A45 45 0 0 1 70 90"/>
    
    <!-- bottom to left --> 
    <path class="arc" d="M50 95A45 45 0 0 1 5 50" stroke-dasharray="4"/>
   </g>
    
   <g class="inner-ring">
     <!-- left to top -->
    <path id="a1" class="arc" d="M15 50A35 35 0 0 1 50 15"/>
    
    <!-- top to right -->
    <path class="arc-highlight" d="M50 15A35 35 0 0 1 85 50"/>
    
    <!-- right to bottom -->
    <path class="arc" d="M85 50A35 35 0 0 1 50 85"/>
    
    <!-- bottom to left --> 
    <path class="arc-highlight" d="M50 85A35 35 0 0 1 15 50"/>
   </g>
    <!-- center of logo -->
    <path id="a1" class="swish" d="M25 38A28 28 0 0 1 75 38"/>
    <path id="a1" class="swish" d="M25 64A28 28 0 0 0 75 64"/>
    <!--
    <path id="diagonal" d="M5 50L50 5"/>
  
    <path id="diagonal" d="M50 5L95 50"/>
  
    <path id="diagonal" d="M95 50L50 95"/>
 
    <path id="diagonal" d="M50 95L5 50"/>
    -->
    <text x="50" y="60" text-anchor="middle" font-size="26">GDS</text>
</svg>